<?xml version="1.0" encoding="UTF-8"?>
<svg version="1.1" xmlns="http://www.w3.org/2000/svg" width="280" height="280">
<path d="M0 0 C92.4 0 184.8 0 280 0 C280 92.4 280 184.8 280 280 C187.6 280 95.2 280 0 280 C0 187.6 0 95.2 0 0 Z " fill="#2E3440" transform="translate(0,0)"/>
<path d="M0 0 C5.74235523 4.71682885 10.921679 9.86479914 16.10629654 15.18395805 C18.63547272 17.77466949 21.18062655 20.34964528 23.72265625 22.92773438 C26.94133707 26.19443364 30.15514494 29.4655864 33.35400391 32.75170898 C35.95565141 35.42349477 38.57161533 38.08048473 41.19781113 40.72813606 C42.19280965 41.73672656 43.18237044 42.75071177 44.1662941 43.77010918 C45.53714437 45.18907966 46.92853931 46.58811556 48.32080078 47.98608398 C49.10576935 48.78739243 49.89073792 49.58870087 50.69949341 50.41429138 C52.87429867 52.22732883 52.87429867 52.22732883 55.47683716 52.03710938 C58.73465996 50.69802871 60.5661713 48.92081279 63.04980469 46.42016602 C63.52685349 45.94530762 64.00390228 45.47044922 64.4954071 44.98120117 C66.06403213 43.41488088 67.6179255 41.83477625 69.171875 40.25390625 C70.26012194 39.1607343 71.34918441 38.06837367 72.43902588 36.97679138 C74.71789932 34.69028544 76.99016127 32.39748235 79.25732422 30.09936523 C82.16646278 27.15058208 85.08633333 24.21273502 88.01050949 21.27887058 C90.79701399 18.48240406 93.5785291 15.68099815 96.359375 12.87890625 C97.15786991 12.07531772 97.15786991 12.07531772 97.97249603 11.25549507 C99.4736743 9.74276449 100.97130551 8.2266172 102.46777344 6.70922852 C103.32095154 5.84620621 104.17412964 4.9831839 105.05316162 4.0940094 C107.04064458 2.15328526 107.04064458 2.15328526 108 0 C111.8239492 1.57877433 114.23642099 3.99501713 117.13574219 6.90869141 C117.63375839 7.40641556 118.1317746 7.90413971 118.6448822 8.41694641 C120.28366733 10.0571207 121.91526134 11.70425661 123.546875 13.3515625 C124.68415347 14.49257256 125.8218754 15.63314077 126.96002197 16.77328491 C129.94989979 19.77078762 132.93372191 22.77424851 135.9163208 25.7789917 C138.96271321 28.84586712 142.01479703 31.90706694 145.06640625 34.96875 C151.04985434 40.97362783 157.02691663 46.98481232 163 53 C152.57036466 74.82646167 132.53532231 98.42989164 110 108 C78.44829469 118.60259607 28.18296913 120.25769997 -2.73718262 106.80950928 C-24.33820056 95.8106205 -40.29268862 75.10265744 -53 55 C-51.42122567 51.1760508 -49.00498287 48.76357901 -46.09130859 45.86425781 C-45.59358444 45.36624161 -45.09586029 44.8682254 -44.58305359 44.3551178 C-42.9428793 42.71633267 -41.29574339 41.08473866 -39.6484375 39.453125 C-38.50742744 38.31584653 -37.36685923 37.1781246 -36.22671509 36.03997803 C-33.22921238 33.05010021 -30.22575149 30.06627809 -27.2210083 27.0836792 C-24.15413288 24.03728679 -21.09293306 20.98520297 -18.03125 17.93359375 C-12.02637217 11.95014566 -6.01518768 5.97308337 0 0 Z " fill="#8ABFCE" transform="translate(85,86)"/>
<path d="M0 0 C3.8239492 1.57877433 6.23642099 3.99501713 9.13574219 6.90869141 C9.63375839 7.40641556 10.1317746 7.90413971 10.6448822 8.41694641 C12.28366733 10.0571207 13.91526134 11.70425661 15.546875 13.3515625 C16.68415347 14.49257256 17.8218754 15.63314077 18.96002197 16.77328491 C21.94989979 19.77078762 24.93372191 22.77424851 27.9163208 25.7789917 C30.96271321 28.84586712 34.01479703 31.90706694 37.06640625 34.96875 C43.04985434 40.97362783 49.02691663 46.98481232 55 53 C53.42122567 56.8239492 51.00498287 59.23642099 48.09130859 62.13574219 C47.59358444 62.63375839 47.09586029 63.1317746 46.58305359 63.6448822 C44.9428793 65.28366733 43.29574339 66.91526134 41.6484375 68.546875 C40.50742744 69.68415347 39.36685923 70.8218754 38.22671509 71.96002197 C35.22921238 74.94989979 32.22575149 77.93372191 29.2210083 80.9163208 C26.15413288 83.96271321 23.09293306 87.01479703 20.03125 90.06640625 C14.02637217 96.04985434 8.01518768 102.02691663 2 108 C1.01 107.67 0.02 107.34 -1 107 C-1 106.34 -1 105.68 -1 105 C-1.66 105 -2.32 105 -3 105 C-4.625 103.625 -4.625 103.625 -6 102 C-6 101.34 -6 100.68 -6 100 C-6.66 100 -7.32 100 -8 100 C-8 99.34 -8 98.68 -8 98 C-8.66 98 -9.32 98 -10 98 C-11.625 96.625 -11.625 96.625 -13 95 C-13 94.34 -13 93.68 -13 93 C-13.66 93 -14.32 93 -15 93 C-15 92.34 -15 91.68 -15 91 C-15.66 91 -16.32 91 -17 91 C-18.625 89.625 -18.625 89.625 -20 88 C-20 87.34 -20 86.68 -20 86 C-20.66 86 -21.32 86 -22 86 C-22 85.34 -22 84.68 -22 84 C-22.66 84 -23.32 84 -24 84 C-25.625 82.625 -25.625 82.625 -27 81 C-27 80.34 -27 79.68 -27 79 C-27.66 79 -28.32 79 -29 79 C-29 78.34 -29 77.68 -29 77 C-29.66 77 -30.32 77 -31 77 C-32.625 75.625 -32.625 75.625 -34 74 C-34 73.34 -34 72.68 -34 72 C-34.66 72 -35.32 72 -36 72 C-36 71.34 -36 70.68 -36 70 C-36.66 70 -37.32 70 -38 70 C-39.625 68.625 -39.625 68.625 -41 67 C-41 66.34 -41 65.68 -41 65 C-41.66 65 -42.32 65 -43 65 C-43 64.34 -43 63.68 -43 63 C-43.66 63 -44.32 63 -45 63 C-46.625 61.625 -46.625 61.625 -48 60 C-48 59.34 -48 58.68 -48 58 C-48.66 58 -49.32 58 -50 58 C-50 57.34 -50 56.68 -50 56 C-50.66 56 -51.32 56 -52 56 C-51.48648324 51.81624635 -49.23712233 49.88036053 -46.3125 46.98779297 C-45.82628174 46.50274292 -45.34006348 46.01769287 -44.83911133 45.51794434 C-43.23293499 43.91894634 -41.61651358 42.33072838 -40 40.7421875 C-38.88208813 39.63241256 -37.76491031 38.52189773 -36.6484375 37.41067505 C-33.70919542 34.48854733 -30.76149944 31.57510484 -27.81152344 28.66381836 C-23.08742478 23.9989301 -18.37596617 19.32128347 -13.66503906 14.64310074 C-12.01636486 13.00841352 -10.36394838 11.3775844 -8.7109375 9.74728394 C-7.7030435 8.74941093 -6.69522676 7.75145987 -5.6875 6.75341797 C-4.80449219 5.88167938 -3.92148438 5.0099408 -3.01171875 4.11178589 C-0.96033935 2.16494478 -0.96033935 2.16494478 0 0 Z " fill="#D7DDE8" transform="translate(193,86)"/>
</svg>
